<?xml version="1.0" encoding="UTF-8"?>
<svg xmlns="http://www.w3.org/2000/svg" id="Layer_1" height="512" viewBox="0 0 50 50" width="512">
  <g style="fill:none;stroke:#000;stroke-linecap:round;stroke-linejoin:round;stroke-miterlimit:10;stroke-width:1.5">
    <path d="m28.9 5.9c0 .6-.2 1.2-.4 1.8-.6 1.3-1.9 2.1-3.4 2.1-1.1 0-2-.4-2.7-1.1s-1.1-1.7-1.1-2.7c-.1-2.3 1.6-4 3.7-4s3.9 1.7 3.9 3.9z"></path>
    <path d="m26 5.9c0 .2 0 .3-.1.5-.2.3-.5.5-.9.5-.3 0-.5-.1-.7-.3s-.3-.5-.3-.7c0-.6.4-1 1-1 .5 0 1 .4 1 1z"></path>
    <path d="m26 18.6c0 .2 0 .3-.1.5-.2.3-.5.5-.9.5-.3 0-.5-.1-.7-.3s-.3-.4-.3-.7c0-.6.4-1 1-1 .5 0 1 .5 1 1z"></path>
    <path d="m6.8 25c0 .2 0 .3-.1.5-.1.3-.5.5-.8.5s-.5-.1-.7-.3-.3-.4-.3-.7c0-.6.4-1 1-1 .5 0 .9.5.9 1z"></path>
    <path d="m45.1 15.6c0 .2 0 .3-.1.5-.2.3-.5.5-.9.5-.3 0-.5-.1-.7-.3s-.3-.4-.3-.7c0-.6.4-1 1-1s1 .5 1 1z"></path>
    <path d="m45.1 34.4c0 .2 0 .3-.1.5-.2.3-.5.5-.9.5-.3 0-.5-.1-.7-.3s-.3-.4-.3-.7c0-.6.4-1 1-1s1 .4 1 1z"></path>
    <path d="m26 31.4c0 .2 0 .3-.1.5-.2.3-.5.5-.9.5-.3 0-.5-.1-.7-.3s-.3-.4-.3-.7c0-.6.4-1 1-1 .5 0 1 .4 1 1z"></path>
    <path d="m26 44.2c0 .2 0 .3-.1.5-.2.3-.5.5-.9.5-.3 0-.5-.1-.7-.3s-.3-.4-.3-.7c0-.6.4-1 1-1 .5 0 1 .4 1 1z"></path>
    <path d="m28.9 44.2c0 2.1-1.7 3.8-3.9 3.8-2.1 0-3.9-1.7-3.9-3.8 0-1.1.4-2 1.1-2.7s1.6-1.1 2.7-1.1c1.5 0 2.8.9 3.4 2.1.4.4.6 1 .6 1.7z"></path>
    <path d="m9.7 8.9c0 .6-.1 1.2-.4 1.8-.6 1.3-1.9 2.1-3.4 2.1-1.1 0-2-.4-2.7-1.1-.8-.8-1.2-1.8-1.2-2.8 0-2.2 1.7-3.9 3.8-3.9 2.2 0 3.9 1.7 3.9 3.9z"></path>
    <path d="m6.8 8.9c0 .2 0 .3-.1.5s-.5.5-.8.5-.5-.1-.7-.3-.3-.5-.3-.7c0-.6.4-1 1-1 .5 0 .9.4.9 1z"></path>
    <path d="m6.8 41.2c0 .2 0 .3-.1.5-.2.3-.5.5-.9.5-.3 0-.5-.1-.7-.3s-.3-.4-.3-.7c0-.6.4-1 1-1s1 .4 1 1z"></path>
    <path d="m9.7 41.2c0 2.1-1.7 3.8-3.9 3.8-2.1 0-3.8-1.7-3.8-3.8 0-1.1.4-2 1.1-2.7s1.7-1.1 2.7-1.1c1.5 0 2.8.9 3.4 2.1.4.4.5 1 .5 1.7z"></path>
    <circle cx="25" cy="31.4" r="3.9"></circle>
    <path d="m9.7 25c0 .5-.1 1-.3 1.4-.2.5-.5 1-.9 1.3-.7.7-1.7 1.1-2.7 1.1-2.1.1-3.8-1.7-3.8-3.8s1.7-3.9 3.9-3.9c1.1 0 2 .4 2.7 1.1.4.4.7.8.9 1.4.1.5.2.9.2 1.4z"></path>
    <path d="m28.9 18.6c0 .9-.3 1.8-.9 2.5-.7.9-1.8 1.4-3 1.4-1.7 0-3.2-1.1-3.7-2.7-.1-.4-.2-.8-.2-1.2 0-2.1 1.7-3.8 3.9-3.8 2.1 0 3.9 1.7 3.9 3.8z"></path>
    <path d="m48 34.4c0 2.1-1.7 3.8-3.8 3.8-1.5 0-2.8-.8-3.4-2.1-.3-.5-.4-1.1-.4-1.8 0-.9.3-1.8.9-2.4.7-.9 1.8-1.4 3-1.4 2 0 3.7 1.8 3.7 3.9z"></path>
    <circle cx="44.1" cy="15.6" r="3.9"></circle>
    <path d="m21.3 30.2-11.8-3.8"></path>
    <path d="m22.3 41.4-13.7-13.7"></path>
    <path d="m41.2 31.9-13.2-10.8"></path>
    <path d="m21.3 19.8-11.9 3.8"></path>
    <path d="m40.7 36.1-12.3 6.3"></path>
    <path d="m40.7 13.9-12.3-6.3"></path>
    <path d="m22.3 8.6-13.7 13.7"></path>
    <path d="m41.2 18.1-13.2 10.8"></path>
    <path d="m21.6 16.8-12.2-6.4"></path>
    <path d="m21.6 33.1-12.3 6.3"></path>
  </g>
</svg>
